{
  "source": "C:\\Users\\Peter\\Desktop\\stuff\\MIUN\\quantitative_research\\video_compression\\videos\\UVG\\ShakeNDry_1920x1080_120fps_420_8bit_YUV.y4m",
  "output": "C:\\Users\\Peter\\Desktop\\stuff\\MIUN\\quantitative_research\\video_compression\\compressed_videos\\UVG\\av1\\1.5\\ShakeNDry_1920x1080_120fps_420_8bit_YUV_av1.mkv",
  "codec": "av1",
  "ok": "[yuv4mpegpipe @ 0000020934545380] Stream #0: not enough frames to estimate rate; consider increasing probesize\nInput #0, yuv4mpegpipe, from 'C:\\Users\\Peter\\Desktop\\stuff\\MIUN\\quantitative_research\\video_compression\\videos\\UVG\\ShakeNDry_1920x1080_120fps_420_8bit_YUV.y4m':\n  Duration: 00:00:02.50, start: 0.000000, bitrate: 2985989 kb/s\n  Stream #0:0: Video: rawvideo (I420 / 0x30323449), yuv420p(progressive), 1920x1080, 120 fps, 120 tbr, 120 tbn\n[out#0/matroska @ 00000209345490c0] Codec AVOption b:a (set bitrate (in bits/s)) has not been used for any stream. The most likely reason is either wrong type (e.g. a video option with no video streams) or that it is a private option of some decoder which was not actually used for any stream.\nStream mapping:\n  Stream #0:0 -> #0:0 (rawvideo (native) -> av1 (libsvtav1))\nPress [q] to stop, [?] for help\nSvt[info]: -------------------------------------------\nSvt[info]: SVT [version]:\tSVT-AV1 Encoder Lib v3.1.0-19-g6ecfe8ec\nSvt[info]: SVT [build]  :\tGCC 15.2.0\t 64 bit\nSvt[info]: LIB Build date: Aug 17 2025 11:37:13\nSvt[info]: -------------------------------------------\n[libsvtav1 @ 000002093454c1c0] Specified chroma sample location center is unsupported on the AV1 bit stream level. Usage of a container that allows passing this information - such as Matroska - is recommended.\nSvt[info]: Level of Parallelism: 5\nSvt[info]: Number of PPCS 93\nSvt[info]: [asm level on system : up to avx2]\nSvt[info]: [asm level selected : up to avx2]\nSvt[info]: -------------------------------------------\nSvt[info]: SVT [config]: main profile\ttier (auto)\tlevel (auto)\nSvt[info]: SVT [config]: width / height / fps numerator / fps denominator \t\t: 1920 / 1080 / 120 / 1\nSvt[info]: SVT [config]: bit-depth / color format \t\t\t\t\t: 8 / YUV420\nSvt[info]: SVT [config]: preset / tune / pred struct \t\t\t\t\t: 4 / PSNR / random access\nSvt[info]: SVT [config]: gop size / mini-gop size / key-frame type \t\t\t: 641 / 16 / key frame\nSvt[info]: SVT [config]: BRC mode / target bitrate (kbps)\t\t\t\t: VBR / 1500 \nSvt[info]: SVT [config]: AQ mode / Variance Boost \t\t\t\t\t: 2 / 0\nSvt[info]: SVT [config]: sharpness / luminance-based QP bias \t\t\t\t: 0 / 0\nSvt[info]: SVT [config]: QP scale compress strength \t\t\t\t\t: 0\nSvt[info]: -------------------------------------------\nOutput #0, matroska, to 'C:\\Users\\Peter\\Desktop\\stuff\\MIUN\\quantitative_research\\video_compression\\compressed_videos\\UVG\\av1\\1.5\\ShakeNDry_1920x1080_120fps_420_8bit_YUV_av1.mkv':\n  Metadata:\n    encoder         : Lavf62.3.100\n  Stream #0:0: Video: av1 (AV01 / 0x31305641), yuv420p(tv, progressive), 1920x1080, q=2-31, 1500 kb/s, 120 fps, 1k tbn\n    Metadata:\n      encoder         : Lavc62.11.100 libsvtav1\n    Side data:\n      cpb: bitrate max/min/avg: 0/0/1500000 buffer size: 1500000 vbv_delay: N/A\nframe=    0 fps=0.0 q=0.0 size=       0KiB time=N/A bitrate=N/A speed=N/A elapsed=0:00:02.72    \nframe=    0 fps=0.0 q=0.0 size=       0KiB time=N/A bitrate=N/A speed=N/A elapsed=0:00:03.24    \nframe=    0 fps=0.0 q=0.0 size=       0KiB time=N/A bitrate=N/A speed=N/A elapsed=0:00:03.75    \nframe=    0 fps=0.0 q=0.0 size=       0KiB time=N/A bitrate=N/A speed=N/A elapsed=0:00:04.27    \nframe=    0 fps=0.0 q=0.0 size=       0KiB time=N/A bitrate=N/A speed=N/A elapsed=0:00:04.78    \nframe=    0 fps=0.0 q=0.0 size=       0KiB time=N/A bitrate=N/A speed=N/A elapsed=0:00:05.30    \nframe=    0 fps=0.0 q=0.0 size=       0KiB time=N/A bitrate=N/A speed=N/A elapsed=0:00:05.80    \nframe=    0 fps=0.0 q=0.0 size=       0KiB time=N/A bitrate=N/A speed=N/A elapsed=0:00:06.33    \nframe=    0 fps=0.0 q=0.0 size=       0KiB time=N/A bitrate=N/A speed=N/A elapsed=0:00:06.85    \nframe=    0 fps=0.0 q=0.0 size=       0KiB time=N/A bitrate=N/A speed=N/A elapsed=0:00:07.36    \nframe=    0 fps=0.0 q=0.0 size=       0KiB time=N/A bitrate=N/A speed=N/A elapsed=0:00:07.87    \nframe=    0 fps=0.0 q=0.0 size=       0KiB time=N/A bitrate=N/A speed=N/A elapsed=0:00:08.39    \nframe=    0 fps=0.0 q=0.0 size=       0KiB time=N/A bitrate=N/A speed=N/A elapsed=0:00:08.90    \nframe=    0 fps=0.0 q=0.0 size=       0KiB time=N/A bitrate=N/A speed=N/A elapsed=0:00:09.42    \nframe=    0 fps=0.0 q=0.0 size=       0KiB time=N/A bitrate=N/A speed=N/A elapsed=0:00:09.93    \nframe=    0 fps=0.0 q=0.0 size=       0KiB time=N/A bitrate=N/A speed=N/A elapsed=0:00:10.45    \nframe=    0 fps=0.0 q=0.0 size=       0KiB time=N/A bitrate=N/A speed=N/A elapsed=0:00:10.96    \nframe=    0 fps=0.0 q=0.0 size=       0KiB time=N/A bitrate=N/A speed=N/A elapsed=0:00:11.48    \nframe=    0 fps=0.0 q=0.0 size=       0KiB time=N/A bitrate=N/A speed=N/A elapsed=0:00:12.00    \nframe=    0 fps=0.0 q=0.0 size=       0KiB time=N/A bitrate=N/A speed=N/A elapsed=0:00:12.51    \nframe=    0 fps=0.0 q=0.0 size=       0KiB time=N/A bitrate=N/A speed=N/A elapsed=0:00:13.03    \nframe=    0 fps=0.0 q=0.0 size=       0KiB time=N/A bitrate=N/A speed=N/A elapsed=0:00:13.55    \nframe=    0 fps=0.0 q=0.0 size=       0KiB time=N/A bitrate=N/A speed=N/A elapsed=0:00:14.06    \nframe=    0 fps=0.0 q=0.0 size=       0KiB time=N/A bitrate=N/A speed=N/A elapsed=0:00:14.58    \nframe=    1 fps=0.1 q=39.0 size=       1KiB time=00:00:00.00 bitrate=N/A speed=   0x elapsed=0:00:15.09    \nframe=    1 fps=0.1 q=39.0 size=       1KiB time=00:00:00.00 bitrate=N/A speed=   0x elapsed=0:00:15.60    \nframe=    1 fps=0.1 q=39.0 size=       1KiB time=00:00:00.00 bitrate=N/A speed=   0x elapsed=0:00:16.12    \nframe=    2 fps=0.1 q=63.0 size=       1KiB time=00:00:00.00 bitrate= 537.6kbits/s speed=0.000501x elapsed=0:00:16.63    \nframe=    4 fps=0.2 q=63.0 size=       1KiB time=00:00:00.02 bitrate= 179.2kbits/s speed=0.00146x elapsed=0:00:17.15    \nframe=    7 fps=0.4 q=60.0 size=       1KiB time=00:00:00.05 bitrate=  89.6kbits/s speed=0.00283x elapsed=0:00:17.67    \nframe=   10 fps=0.5 q=59.0 size=       1KiB time=00:00:00.07 bitrate=  59.7kbits/s speed=0.00412x elapsed=0:00:18.19    \nframe=   13 fps=0.7 q=59.0 size=       1KiB time=00:00:00.10 bitrate=  44.8kbits/s speed=0.00535x elapsed=0:00:18.70    \nframe=   16 fps=0.8 q=59.0 size=       1KiB time=00:00:00.12 bitrate=  35.8kbits/s speed=0.0065x elapsed=0:00:19.22    \nframe=   18 fps=0.9 q=56.0 size=       1KiB time=00:00:00.14 bitrate=  31.6kbits/s speed=0.00718x elapsed=0:00:19.73    \nframe=   19 fps=0.9 q=56.0 size=       1KiB time=00:00:00.15 bitrate=  29.9kbits/s speed=0.00741x elapsed=0:00:20.25    \nframe=   21 fps=1.0 q=58.0 size=       1KiB time=00:00:00.16 bitrate=  26.9kbits/s speed=0.00803x elapsed=0:00:20.76    \nframe=   23 fps=1.1 q=55.0 size=       1KiB time=00:00:00.18 bitrate=  24.4kbits/s speed=0.00861x elapsed=0:00:21.28    \nframe=   25 fps=1.1 q=56.0 size=       1KiB time=00:00:00.20 bitrate=  22.4kbits/s speed=0.00917x elapsed=0:00:21.80    \nframe=   26 fps=1.2 q=54.0 size=       1KiB time=00:00:00.20 bitrate=  21.5kbits/s speed=0.00933x elapsed=0:00:22.32    \nframe=   31 fps=1.4 q=55.0 size=       1KiB time=00:00:00.24 bitrate=  18.5kbits/s speed=0.0106x elapsed=0:00:22.87    \nframe=   32 fps=1.4 q=55.0 size=       1KiB time=00:00:00.25 bitrate=  17.3kbits/s speed=0.011x elapsed=0:00:23.43    \nframe=   34 fps=1.4 q=53.0 size=       1KiB time=00:00:00.27 bitrate=  16.3kbits/s speed=0.0115x elapsed=0:00:23.96    \nframe=   35 fps=1.4 q=55.0 size=       1KiB time=00:00:00.28 bitrate=  15.8kbits/s speed=0.0116x elapsed=0:00:24.51    \nframe=   36 fps=1.4 q=54.0 size=       1KiB time=00:00:00.29 bitrate=  15.4kbits/s speed=0.0116x elapsed=0:00:25.04    \nframe=   38 fps=1.5 q=54.0 size=       1KiB time=00:00:00.30 bitrate=  14.5kbits/s speed=0.0121x elapsed=0:00:25.57    \nframe=   41 fps=1.6 q=53.0 size=       1KiB time=00:00:00.33 bitrate=  13.4kbits/s speed=0.0128x elapsed=0:00:26.11    \nframe=   42 fps=1.6 q=53.0 size=       1KiB time=00:00:00.34 bitrate=  13.1kbits/s speed=0.0128x elapsed=0:00:26.62    \nframe=   43 fps=1.6 q=54.0 size=       1KiB time=00:00:00.35 bitrate=  12.8kbits/s speed=0.0129x elapsed=0:00:27.22    \nframe=   45 fps=1.6 q=55.0 size=       1KiB time=00:00:00.36 bitrate=  12.2kbits/s speed=0.0132x elapsed=0:00:27.77    \nframe=   48 fps=1.7 q=54.0 size=       1KiB time=00:00:00.39 bitrate=  11.4kbits/s speed=0.0138x elapsed=0:00:28.28    \nframe=   50 fps=1.7 q=55.0 size=       1KiB time=00:00:00.40 bitrate=  11.0kbits/s speed=0.0142x elapsed=0:00:28.80    \nframe=   52 fps=1.8 q=54.0 size=       1KiB time=00:00:00.42 bitrate=  10.5kbits/s speed=0.0145x elapsed=0:00:29.30    \nframe=   54 fps=1.8 q=54.0 size=       1KiB time=00:00:00.44 bitrate=  10.1kbits/s speed=0.0148x elapsed=0:00:29.82    \nframe=   55 fps=1.8 q=56.0 size=       1KiB time=00:00:00.45 bitrate=  10.0kbits/s speed=0.0148x elapsed=0:00:30.33    \nframe=   58 fps=1.9 q=53.0 size=       1KiB time=00:00:00.47 bitrate=   9.4kbits/s speed=0.0154x elapsed=0:00:30.86    \nframe=   60 fps=1.9 q=53.0 size=       1KiB time=00:00:00.49 bitrate=   9.1kbits/s speed=0.0157x elapsed=0:00:31.38    \nframe=   64 fps=2.0 q=54.0 size=       1KiB time=00:00:00.52 bitrate=   8.5kbits/s speed=0.0165x elapsed=0:00:31.88    \nframe=   67 fps=2.1 q=56.0 size=       1KiB time=00:00:00.55 bitrate=   8.1kbits/s speed=0.017x elapsed=0:00:32.40    \nframe=   68 fps=2.1 q=54.0 size=       1KiB time=00:00:00.55 bitrate=   8.0kbits/s speed=0.017x elapsed=0:00:32.92    \nframe=   69 fps=2.1 q=56.0 size=       1KiB time=00:00:00.56 bitrate=   7.9kbits/s speed=0.0169x elapsed=0:00:33.44    \nframe=   71 fps=2.1 q=55.0 size=       1KiB time=00:00:00.58 bitrate=   7.7kbits/s speed=0.0172x elapsed=0:00:33.96    \nframe=   73 fps=2.1 q=45.0 size=       1KiB time=00:00:00.60 bitrate=   7.5kbits/s speed=0.0174x elapsed=0:00:34.46    \nframe=   75 fps=2.1 q=55.0 size=       1KiB time=00:00:00.61 bitrate=   7.3kbits/s speed=0.0176x elapsed=0:00:34.99    \nframe=   75 fps=2.1 q=55.0 size=       1KiB time=00:00:00.61 bitrate=   7.3kbits/s speed=0.0174x elapsed=0:00:35.49    \nframe=   78 fps=2.2 q=53.0 size=       1KiB time=00:00:00.64 bitrate=   7.0kbits/s speed=0.0178x elapsed=0:00:36.01    \nframe=   81 fps=2.2 q=39.0 size=       1KiB time=00:00:00.66 bitrate=   6.7kbits/s speed=0.0182x elapsed=0:00:36.53    \nframe=   85 fps=2.3 q=55.0 size=       1KiB time=00:00:00.70 bitrate=   6.4kbits/s speed=0.0189x elapsed=0:00:37.04    \nframe=   87 fps=2.3 q=54.0 size=       1KiB time=00:00:00.71 bitrate=   6.3kbits/s speed=0.0191x elapsed=0:00:37.56    \nframe=   88 fps=2.3 q=53.0 size=       1KiB time=00:00:00.72 bitrate=   6.2kbits/s speed=0.019x elapsed=0:00:38.08    \nframe=   91 fps=2.4 q=54.0 size=       1KiB time=00:00:00.75 bitrate=   6.0kbits/s speed=0.0194x elapsed=0:00:38.59    \nframe=   92 fps=2.4 q=52.0 size=       1KiB time=00:00:00.75 bitrate=   5.9kbits/s speed=0.0194x elapsed=0:00:39.11    \nframe=   94 fps=2.4 q=52.0 size=       1KiB time=00:00:00.77 bitrate=   5.8kbits/s speed=0.0196x elapsed=0:00:39.62    \nframe=   96 fps=2.4 q=52.0 size=       1KiB time=00:00:00.79 bitrate=   5.7kbits/s speed=0.0197x elapsed=0:00:40.14    \nframe=   96 fps=2.4 q=52.0 size=       1KiB time=00:00:00.79 bitrate=   5.7kbits/s speed=0.0195x elapsed=0:00:40.65    \nframe=   98 fps=2.4 q=51.0 size=       1KiB time=00:00:00.80 bitrate=   5.5kbits/s speed=0.0196x elapsed=0:00:41.17    \nframe=   99 fps=2.4 q=53.0 size=       1KiB time=00:00:00.81 bitrate=   5.5kbits/s speed=0.0196x elapsed=0:00:41.69    \nframe=  101 fps=2.4 q=54.0 size=       1KiB time=00:00:00.83 bitrate=   5.4kbits/s speed=0.0197x elapsed=0:00:42.19    \nframe=  103 fps=2.4 q=53.0 size=       1KiB time=00:00:00.85 bitrate=   5.3kbits/s speed=0.0199x elapsed=0:00:42.71    \nframe=  104 fps=2.4 q=51.0 size=       1KiB time=00:00:00.85 bitrate=   5.2kbits/s speed=0.0199x elapsed=0:00:43.23    \nframe=  107 fps=2.4 q=53.0 size=       1KiB time=00:00:00.88 bitrate=   5.1kbits/s speed=0.0202x elapsed=0:00:43.74    \nframe=  111 fps=2.5 q=53.0 size=       1KiB time=00:00:00.91 bitrate=   4.9kbits/s speed=0.0207x elapsed=0:00:44.27    \nframe=  113 fps=2.5 q=35.0 size=       1KiB time=00:00:00.93 bitrate=   4.8kbits/s speed=0.0208x elapsed=0:00:44.79    \nframe=  115 fps=2.5 q=52.0 size=       1KiB time=00:00:00.95 bitrate=   4.7kbits/s speed=0.021x elapsed=0:00:45.31    \nframe=  117 fps=2.6 q=53.0 size=       1KiB time=00:00:00.96 bitrate=   4.6kbits/s speed=0.0211x elapsed=0:00:45.82    \nframe=  118 fps=2.5 q=51.0 size=       1KiB time=00:00:00.97 bitrate=   4.6kbits/s speed=0.021x elapsed=0:00:46.34    \nframe=  120 fps=2.6 q=50.0 size=       1KiB time=00:00:00.99 bitrate=   4.5kbits/s speed=0.0212x elapsed=0:00:46.86    \nframe=  122 fps=2.6 q=50.0 size=       1KiB time=00:00:01.00 bitrate=   4.4kbits/s speed=0.0213x elapsed=0:00:47.38    \nframe=  124 fps=2.6 q=49.0 size=       1KiB time=00:00:01.02 bitrate=   4.4kbits/s speed=0.0214x elapsed=0:00:47.89    \nframe=  125 fps=2.6 q=52.0 size=       1KiB time=00:00:01.03 bitrate=   4.3kbits/s speed=0.0213x elapsed=0:00:48.40    \nframe=  126 fps=2.6 q=50.0 size=       1KiB time=00:00:01.04 bitrate=   4.3kbits/s speed=0.0213x elapsed=0:00:48.91    \nframe=  126 fps=2.5 q=50.0 size=       1KiB time=00:00:01.04 bitrate=   4.3kbits/s speed=0.0211x elapsed=0:00:49.43    \nframe=  128 fps=2.6 q=50.0 size=       1KiB time=00:00:01.05 bitrate=   4.2kbits/s speed=0.0212x elapsed=0:00:49.95    \nframe=  130 fps=2.6 q=50.0 size=       1KiB time=00:00:01.07 bitrate=   4.2kbits/s speed=0.0213x elapsed=0:00:50.47    \nframe=  133 fps=2.6 q=52.0 size=       1KiB time=00:00:01.10 bitrate=   4.1kbits/s speed=0.0216x elapsed=0:00:50.98    \nframe=  135 fps=2.6 q=52.0 size=       1KiB time=00:00:01.11 bitrate=   4.0kbits/s speed=0.0217x elapsed=0:00:51.49    \nframe=  138 fps=2.7 q=47.0 size=       1KiB time=00:00:01.14 bitrate=   3.9kbits/s speed=0.0219x elapsed=0:00:52.01    \nframe=  141 fps=2.7 q=52.0 size=       1KiB time=00:00:01.16 bitrate=   3.8kbits/s speed=0.0222x elapsed=0:00:52.53    \nframe=  143 fps=2.7 q=49.0 size=       1KiB time=00:00:01.18 bitrate=   3.8kbits/s speed=0.0223x elapsed=0:00:53.04    \nframe=  145 fps=2.7 q=27.0 size=       1KiB time=00:00:01.20 bitrate=   3.7kbits/s speed=0.0224x elapsed=0:00:53.57    \nframe=  149 fps=2.8 q=52.0 size=       1KiB time=00:00:01.23 bitrate=   3.6kbits/s speed=0.0228x elapsed=0:00:54.08    \nframe=  151 fps=2.8 q=49.0 size=       1KiB time=00:00:01.25 bitrate=   3.6kbits/s speed=0.0229x elapsed=0:00:54.59    \nframe=  153 fps=2.8 q=39.0 size=       1KiB time=00:00:01.26 bitrate=   3.5kbits/s speed=0.023x elapsed=0:00:55.10    \nframe=  156 fps=2.8 q=44.0 size=       1KiB time=00:00:01.29 bitrate=   3.5kbits/s speed=0.0232x elapsed=0:00:55.62    \nframe=  157 fps=2.8 q=50.0 size=       1KiB time=00:00:01.30 bitrate=   3.4kbits/s speed=0.0232x elapsed=0:00:56.14    \nframe=  158 fps=2.8 q=44.0 size=       1KiB time=00:00:01.30 bitrate=   3.4kbits/s speed=0.0231x elapsed=0:00:56.65    \nframe=  160 fps=2.8 q=44.0 size=       1KiB time=00:00:01.32 bitrate=   3.4kbits/s speed=0.0232x elapsed=0:00:57.17    \nframe=  162 fps=2.8 q=44.0 size=       1KiB time=00:00:01.34 bitrate=   3.3kbits/s speed=0.0233x elapsed=0:00:57.68    \nframe=  165 fps=2.8 q=50.0 size=       1KiB time=00:00:01.36 bitrate=   3.3kbits/s speed=0.0235x elapsed=0:00:58.20    \nframe=  169 fps=2.9 q=38.0 size=       1KiB time=00:00:01.40 bitrate=   3.2kbits/s speed=0.0238x elapsed=0:00:58.71    \nframe=  171 fps=2.9 q=49.0 size=       1KiB time=00:00:01.41 bitrate=   3.2kbits/s speed=0.0239x elapsed=0:00:59.23    \nframe=  174 fps=2.9 q=47.0 size=       1KiB time=00:00:01.44 bitrate=   3.1kbits/s speed=0.0241x elapsed=0:00:59.75    \nframe=  176 fps=2.9 q=48.0 size=       1KiB time=00:00:01.45 bitrate=   3.1kbits/s speed=0.0242x elapsed=0:01:00.26    \nframe=  178 fps=2.9 q=48.0 size=       1KiB time=00:00:01.47 bitrate=   3.0kbits/s speed=0.0243x elapsed=0:01:00.77    \nframe=  179 fps=2.9 q=50.0 size=       1KiB time=00:00:01.48 bitrate=   3.0kbits/s speed=0.0242x elapsed=0:01:01.30    \nframe=  180 fps=2.9 q=48.0 size=       1KiB time=00:00:01.49 bitrate=   3.0kbits/s speed=0.0241x elapsed=0:01:01.80    \nframe=  182 fps=2.9 q=49.0 size=       1KiB time=00:00:01.50 bitrate=   3.0kbits/s speed=0.0242x elapsed=0:01:02.32    \nframe=  184 fps=2.9 q=50.0 size=       1KiB time=00:00:01.52 bitrate=   2.9kbits/s speed=0.0243x elapsed=0:01:02.84    \nframe=  187 fps=3.0 q=52.0 size=       1KiB time=00:00:01.55 bitrate=   2.9kbits/s speed=0.0245x elapsed=0:01:03.36    \nframe=  190 fps=3.0 q=50.0 size=       1KiB time=00:00:01.57 bitrate=   2.8kbits/s speed=0.0247x elapsed=0:01:03.87    \nframe=  192 fps=3.0 q=50.0 size=       1KiB time=00:00:01.59 bitrate=   2.8kbits/s speed=0.0247x elapsed=0:01:04.38    \nframe=  194 fps=3.0 q=50.0 size=       1KiB time=00:00:01.60 bitrate=   2.8kbits/s speed=0.0248x elapsed=0:01:04.90    \nframe=  195 fps=3.0 q=53.0 size=       1KiB time=00:00:01.61 bitrate=   2.8kbits/s speed=0.0247x elapsed=0:01:05.42    \nframe=  197 fps=3.0 q=52.0 size=       1KiB time=00:00:01.63 bitrate=   2.7kbits/s speed=0.0248x elapsed=0:01:05.94    \nframe=  199 fps=3.0 q=53.0 size=       1KiB time=00:00:01.65 bitrate=   2.7kbits/s speed=0.0248x elapsed=0:01:06.45    \nframe=  201 fps=3.0 q=38.0 size=       1KiB time=00:00:01.66 bitrate=   2.7kbits/s speed=0.0249x elapsed=0:01:06.97    \nframe=  202 fps=3.0 q=50.0 size=       1KiB time=00:00:01.67 bitrate=   2.7kbits/s speed=0.0248x elapsed=0:01:07.48    \nframe=  205 fps=3.0 q=51.0 size=       1KiB time=00:00:01.70 bitrate=   2.6kbits/s speed=0.025x elapsed=0:01:08.00    \nframe=  209 fps=3.1 q=29.0 size=       1KiB time=00:00:01.73 bitrate=   2.6kbits/s speed=0.0253x elapsed=0:01:08.51    \nframe=  211 fps=3.1 q=53.0 size=       1KiB time=00:00:01.75 bitrate=   2.6kbits/s speed=0.0253x elapsed=0:01:09.03    \nframe=  213 fps=3.1 q=52.0 size=       1KiB time=00:00:01.76 bitrate=   2.5kbits/s speed=0.0254x elapsed=0:01:09.55    \nframe=  215 fps=3.1 q=52.0 size=       1KiB time=00:00:01.78 bitrate=   2.5kbits/s speed=0.0254x elapsed=0:01:10.07    \nframe=  217 fps=3.1 q=39.0 size=       1KiB time=00:00:01.80 bitrate=   2.5kbits/s speed=0.0255x elapsed=0:01:10.59    \nframe=  219 fps=3.1 q=53.0 size=       1KiB time=00:00:01.81 bitrate=   2.5kbits/s speed=0.0255x elapsed=0:01:11.10    \nframe=  221 fps=3.1 q=51.0 size=       1KiB time=00:00:01.83 bitrate=   2.4kbits/s speed=0.0256x elapsed=0:01:11.63    \nframe=  223 fps=3.1 q=53.0 size=       1KiB time=00:00:01.85 bitrate=   2.4kbits/s speed=0.0256x elapsed=0:01:12.14    \nframe=  225 fps=3.1 q=31.0 size=       1KiB time=00:00:01.86 bitrate=   2.4kbits/s speed=0.0257x elapsed=0:01:12.65    \nframe=  229 fps=3.1 q=52.0 size=       1KiB time=00:00:01.90 bitrate=   2.4kbits/s speed=0.026x elapsed=0:01:13.16    \nframe=  231 fps=3.1 q=52.0 size=       1KiB time=00:00:01.91 bitrate=   2.3kbits/s speed=0.026x elapsed=0:01:13.68    \nframe=  233 fps=3.1 q=39.0 size=       1KiB time=00:00:01.93 bitrate=   2.3kbits/s speed=0.0261x elapsed=0:01:14.20    \nframe=  237 fps=3.2 q=52.0 size=       1KiB time=00:00:01.96 bitrate=   2.3kbits/s speed=0.0263x elapsed=0:01:14.72    \nframe=  241 fps=3.2 q=31.0 size=       1KiB time=00:00:02.00 bitrate=   2.2kbits/s speed=0.0266x elapsed=0:01:15.24    \nframe=  243 fps=3.2 q=51.0 size=       1KiB time=00:00:02.01 bitrate=   2.2kbits/s speed=0.0266x elapsed=0:01:15.74    \nframe=  247 fps=3.2 q=50.0 size=       1KiB time=00:00:02.05 bitrate=   2.2kbits/s speed=0.0269x elapsed=0:01:16.26    \nframe=  249 fps=3.2 q=38.0 size=       1KiB time=00:00:02.06 bitrate=   2.2kbits/s speed=0.0269x elapsed=0:01:16.77    \nframe=  251 fps=3.2 q=50.0 size=       1KiB time=00:00:02.08 bitrate=   2.2kbits/s speed=0.027x elapsed=0:01:17.29    \nframe=  253 fps=3.3 q=51.0 size=       1KiB time=00:00:02.10 bitrate=   2.1kbits/s speed=0.027x elapsed=0:01:17.80    \nframe=  257 fps=3.3 q=30.0 size=       1KiB time=00:00:02.13 bitrate=   2.1kbits/s speed=0.0272x elapsed=0:01:18.32    \nframe=  257 fps=3.3 q=30.0 size=       1KiB time=00:00:02.13 bitrate=   2.1kbits/s speed=0.0271x elapsed=0:01:18.85    \nframe=  259 fps=3.3 q=52.0 size=       1KiB time=00:00:02.15 bitrate=   2.1kbits/s speed=0.0271x elapsed=0:01:19.38    \nframe=  261 fps=3.3 q=51.0 size=       1KiB time=00:00:02.16 bitrate=   2.1kbits/s speed=0.0271x elapsed=0:01:19.88    \nframe=  265 fps=3.3 q=38.0 size=       1KiB time=00:00:02.20 bitrate=   2.0kbits/s speed=0.0274x elapsed=0:01:20.40    \nframe=  269 fps=3.3 q=50.0 size=       1KiB time=00:00:02.23 bitrate=   2.0kbits/s speed=0.0276x elapsed=0:01:20.92    \nframe=  269 fps=3.3 q=50.0 size=       1KiB time=00:00:02.23 bitrate=   2.0kbits/s speed=0.0274x elapsed=0:01:21.43    \nframe=  273 fps=3.3 q=27.0 size=       1KiB time=00:00:02.26 bitrate=   2.0kbits/s speed=0.0277x elapsed=0:01:21.94    \nframe=  275 fps=3.3 q=49.0 size=       1KiB time=00:00:02.28 bitrate=   2.0kbits/s speed=0.0277x elapsed=0:01:22.46    \nframe=  277 fps=3.3 q=47.0 size=       1KiB time=00:00:02.30 bitrate=   1.9kbits/s speed=0.0277x elapsed=0:01:22.97    \nframe=  281 fps=3.4 q=36.0 size=       1KiB time=00:00:02.33 bitrate=   1.9kbits/s speed=0.0279x elapsed=0:01:23.50    \nframe=  285 fps=3.4 q=47.0 size=       1KiB time=00:00:02.36 bitrate=   1.9kbits/s speed=0.0282x elapsed=0:01:24.02    \nframe=  291 fps=3.4 q=44.0 size=       1KiB time=00:00:02.41 bitrate=   1.9kbits/s speed=0.0286x elapsed=0:01:24.53    \n[out#0/matroska @ 00000209345490c0] video:462KiB audio:0KiB subtitle:0KiB other streams:0KiB global headers:0KiB muxing overhead: 0.414316%\nframe=  300 fps=3.5 q=49.0 Lsize=     463KiB time=00:00:02.49 bitrate=1523.6kbits/s speed=0.0293x elapsed=0:01:24.96    \n",
  "seconds": 86.97792840003967,
  "probe_out": {}
}